{"title":"Cute Woman Having Sex With Black And White Guys[VPSR].Mp4","uid":10757825,"size":110561484,"categoryP":"porn","categoryS":"other","magnet":"?xt=urn:btih:52e3f3abc59319b2fc26663ae2aa21b652da66ac&amp;dn=Cute+Woman+Having+Sex+With+Black+And+White+Guys%5BVPSR%5D.Mp4&amp;tr=udp%3A%2F%2Ftracker.openbittorrent.com%3A80&amp;tr=udp%3A%2F%2Fopen.demonii.com%3A1337&amp;tr=udp%3A%2F%2Ftracker.coppersurfer.tk%3A6969&amp;tr=udp%3A%2F%2Fexodus.desync.com%3A6969","seeders":2,"leechers":0,"uploader":"vpsr","files":1,"time":1407947545,"description":"Cute Woman Having Sex With Black And White Guys[VPSR].Mp4\n\n &lt;a href=&quot;\nhttp://s25.postimg.org/vixxb5jmn/woman.jpg&quot; rel=&quot;nofollow&quot; target=&quot;_NEW&quot;&gt;\nhttp://s25.postimg.org/vixxb5jmn/woman.jpg&lt;/a&gt;\n\n &lt;a href=&quot;\nhttp://s25.postimg.org/3k8cy17dr/Cute_Woman_Having_Sex_With_Black_And_White_Guys.jpg&quot; rel=&quot;nofollow&quot; target=&quot;_NEW&quot;&gt;\nhttp://s25.postimg.org/3k8cy17dr/Cute_Woman_Having_Sex_With_Black_And_White_Guys.jpg&lt;/a&gt;\n\n\nFILE INFO\n\n\nGeneral\nComplete name                            : Cute Woman Having Sex With Black And White Guys[VPSR].Mp4\nFormat                                   : MPEG-4\nCodec ID                                 : M4V \nFile size                                : 105 MiB\nDuration                                 : 44mn 29s\nOverall bit rate                         : 331 Kbps\n\nVideo\nID                                       : 1\nFormat                                   : AVC\nFormat/Info                              : Advanced Video Codec\nFormat profile                           : &lt;a class=&quot;__cf_email__&quot; href=&quot;/cdn-cgi/l/email-protection&quot; data-cfemail=&quot;10527163757c797e75505c213e23&quot;&gt;[email&amp;#160;protected]&lt;/a&gt;&lt;script cf-hash='f9e31' type=&quot;text/javascript&quot;&gt;\n/* &lt;![CDATA[ */!function(){try{var t=&quot;currentScript&quot;in document?document.currentScript:function(){for(var t=document.getElementsByTagName(&quot;script&quot;),e=t.length;e--;)if(t[e].getAttribute(&quot;cf-hash&quot;))return t[e]}();if(t&amp;&amp;t.previousSibling){var e,r,n,i,c=t.previousSibling,a=c.getAttribute(&quot;data-cfemail&quot;);if(a){for(e=&quot;&quot;,r=parseInt(a.substr(0,2),16),n=2;a.length-n;n+=2)i=parseInt(a.substr(n,2),16)^r,e+=String.fromCharCode(i);e=document.createTextNode(e),c.parentNode.replaceChild(e,c)}}}catch(u){}}();/* ]]&gt; */&lt;/script&gt;\nFormat settings, CABAC                   : No\nFormat settings, ReFrames                : 2 frames\nCodec ID                                 : avc1\nCodec ID/Info                            : Advanced Video Coding\nDuration                                 : 44mn 29s\nBit rate                                 : 297 Kbps\nMaximum bit rate                         : 731 Kbps\nWidth                                    : 320 pixels\nHeight                                   : 240 pixels\nDisplay aspect ratio                     : 4:3\nFrame rate mode                          : Constant\nFrame rate                               : 24.000 fps\nColor space                              : YUV\nChroma subsampling                       : 4:2:0\nBit depth                                : 8 bits\nScan type                                : Progressive\nBits/(Pixel*Frame)                       : 0.161\nStream size                              : 94.6 MiB (90%)\n\nAudio\nID                                       : 2\nFormat                                   : AAC\nFormat/Info                              : Advanced Audio Codec\nFormat profile                           : LC\nCodec ID                                 : 40\nDuration                                 : 44mn 29s\nBit rate mode                            : Constant\nBit rate                                 : 32.0 Kbps\nChannel(s)                               : 1 channel\nChannel positions                        : Front: C\nSampling rate                            : 22.05 KHz\nCompression mode                         : Lossy\nStream size                              : 9.81 MiB (9%)\n","torrent":{"xt":"urn:btih:52e3f3abc59319b2fc26663ae2aa21b652da66ac","amp;dn":"Cute+Woman+Having+Sex+With+Black+And+White+Guys%5BVPSR%5D.Mp4","amp;tr":["udp%3A%2F%2Ftracker.openbittorrent.com%3A80","udp%3A%2F%2Fopen.demonii.com%3A1337","udp%3A%2F%2Ftracker.coppersurfer.tk%3A6969","udp%3A%2F%2Fexodus.desync.com%3A6969"],"infoHash":"52e3f3abc59319b2fc26663ae2aa21b652da66ac","infoHashBuffer":{"type":"Buffer","data":[82,227,243,171,197,147,25,178,252,38,102,58,226,170,33,182,82,218,102,172]},"announce":[],"urlList":[]}}